Coordinates
version=1
nRows=26
nColumns=22
inDegrees=yes

Units are S.I. units (second, meters, Newtons, ...)
If the header above contains a line with 'inDegrees', this indicates whether rotational values are in degrees (yes) or radians (no).

endheader
time	pelvis_tilt	pelvis_list	pelvis_rotation	pelvis_tx	pelvis_ty	pelvis_tz	hip_flexion_r	hip_adduction_r	hip_rotation_r	knee_angle_r	ankle_angle_r	subtalar_angle_r	hip_flexion_l	hip_adduction_l	hip_rotation_l	knee_angle_l	ankle_angle_l	subtalar_angle_l	lumbar_extension	lumbar_bending	lumbar_rotation
      4.17000000	     -4.45117485	      2.23257920	   -101.07478193	      0.18860541	      0.85582365	      0.16965700	    -13.00210710	      1.50959107	     20.82130088	    -22.56369979	     15.11546985	      2.33941936	     30.60103236	    -13.95981082	     -4.06114017	    -29.67605268	      1.15057137	     11.11597658	     -1.39586825	      3.76458493	     13.62480463
      4.18000000	     -4.37786195	      2.14649659	   -101.13418253	      0.19143280	      0.85720234	      0.17783790	    -12.46164071	      1.43228870	     20.62262567	    -24.42831345	     13.57587096	      3.34289999	     30.26586537	    -13.62382612	     -4.13025108	    -30.31685249	      1.82622639	     10.74305692	     -1.48489373	      3.55981837	     13.54851960
      4.19000000	     -4.37121351	      2.10393940	   -101.26859982	      0.19409610	      0.85861106	      0.18579546	    -11.71706219	      1.45511790	     20.37340790	    -26.51385251	     11.87766708	      4.33056044	     29.86064182	    -13.40822134	     -4.32217634	    -30.79264076	      2.54345817	     10.40874098	     -1.55075545	      3.44523870	     13.56215185
      4.20000000	     -4.40929221	      2.09309983	   -101.44961238	      0.19664648	      0.86004811	      0.19354200	    -10.78777685	      1.54220207	     20.00770342	    -28.78601657	     10.01052044	      5.34590215	     29.38902439	    -13.27456506	     -4.61809730	    -31.11285076	      3.29707303	     10.08719623	     -1.59985990	      3.39787709	     13.59913363
      4.21000000	     -4.45684337	      2.14185109	   -101.73304696	      0.19896122	      0.86144884	      0.20095688	     -9.59463127	      1.66372926	     19.57085822	    -31.30805608	      8.06642137	      6.16301328	     28.88920537	    -13.22678543	     -5.06703986	    -31.29732381	      4.02236454	      9.82276775	     -1.60566487	      3.37585340	     13.75122469
      4.22000000	     -4.48763836	      2.22880781	   -102.08298657	      0.20109993	      0.86282369	      0.20804633	     -8.17682986	      1.77531665	     19.02003545	    -34.02594159	      6.07329518	      6.79982763	     28.35986968	    -13.20946514	     -5.61891291	    -31.35558055	      4.70309181	      9.59167396	     -1.58492491	      3.34717489	     13.96105787
      4.23000000	     -4.46234835	      2.31852391	   -102.51205636	      0.20304164	      0.86420545	      0.21477118	     -6.57074927	      1.82086908	     18.38955383	    -36.91332564	      4.10349222	      7.08885418	     27.77471350	    -13.17764784	     -6.28509510	    -31.29621982	      5.29253891	      9.45705987	     -1.57275933	      3.25645018	     14.24664796
      4.24000000	     -4.39486977	      2.48228154	   -102.92421697	      0.20493896	      0.86536920	      0.22113282	     -4.71617235	      1.81243423	     17.56824016	    -39.94013097	      2.28205540	      7.31640403	     27.30827980	    -13.11738619	     -6.95816810	    -31.23692961	      5.86958837	      9.23259174	     -1.48454965	      3.14253501	     14.45408703
      4.25000000	     -4.24842719	      2.62639978	   -103.38584261	      0.20669118	      0.86652513	      0.22714521	     -2.73724451	      1.68061969	     16.69109630	    -43.02933452	      0.64951006	      7.26082816	     26.79354795	    -12.99025571	     -7.69079888	    -31.07895760	      6.33197690	      9.08452453	     -1.41589167	      2.93596235	     14.71001268
      4.26000000	     -4.04140073	      2.80093198	   -103.82151941	      0.20842142	      0.86748751	      0.23279879	     -0.60603185	      1.45332709	     15.72206108	    -46.14596306	     -0.68622645	      6.92168622	     26.37669959	    -12.78918299	     -8.36034084	    -30.94611764	      6.76890898	      8.86276936	     -1.31190647	      2.67292998	     14.87346952
      4.27000000	     -3.77647816	      2.95217800	   -104.25520648	      0.21012831	      0.86838991	      0.23815897	      1.58139848	      1.10499187	     14.71813700	    -49.20494053	     -1.67103594	      6.40995692	     25.95723348	    -12.51118341	     -9.01344922	    -30.77480635	      7.13059808	      8.65190151	     -1.22861670	      2.34603008	     15.01606818
      4.28000000	     -3.47828728	      3.08322532	   -104.66295696	      0.21185229	      0.86922351	      0.24325987	      3.79068498	      0.66039138	     13.68465419	    -52.14307572	     -2.26384185	      5.74068167	     25.55354088	    -12.16879456	     -9.60164634	    -30.58784775	      7.44431562	      8.41319250	     -1.16556340	      1.98258874	     15.11374728
      4.29000000	     -3.15700278	      3.18311163	   -105.03699297	      0.21366156	      0.87000231	      0.24813417	      5.98040771	      0.12517492	     12.64125255	    -54.90780369	     -2.40639133	      4.99498908	     25.16294304	    -11.76717046	    -10.13776638	    -30.40392225	      7.71841385	      8.17158860	     -1.13992473	      1.60284182	     15.13778688
      4.30000000	     -2.84228320	      3.25245075	   -105.36509551	      0.21554598	      0.87077342	      0.25282304	      8.11368876	     -0.45957639	     11.58975181	    -57.43877598	     -2.15656331	      4.13143629	     24.77517199	    -11.33445253	    -10.60841181	    -30.21441709	      7.95505412	      7.91536182	     -1.15663933	      1.23298672	     15.09234675
      4.31000000	     -2.56049280	      3.29250452	   -105.63771849	      0.21752921	      0.87157353	      0.25737916	     10.15434408	     -1.05860563	     10.52897940	    -59.68189211	     -1.57077929	      3.11048131	     24.37070102	    -10.88645516	    -10.98001362	    -29.99463763	      8.19604042	      7.64463323	     -1.21685271	      0.90435416	     15.00055333
      4.32000000	     -2.32499101	      3.30512567	   -105.85271090	      0.21957585	      0.87242238	      0.26179082	     12.08482021	     -1.63088377	      9.48444159	    -61.61247857	     -0.73624800	      2.00181977	     23.96012261	    -10.45215152	    -11.28869002	    -29.77146750	      8.40890845	      7.37877637	     -1.32718720	      0.62942243	     14.81705066
      4.33000000	     -2.15672323	      3.29922379	   -106.00411054	      0.22164886	      0.87335188	      0.26610520	     13.87935741	     -2.14100659	      8.44205447	    -63.18726808	      0.25129455	      0.84573230	     23.53273125	    -10.05429024	    -11.52078371	    -29.52346942	      8.59083813	      7.11735323	     -1.47528257	      0.42759398	     14.57285115
      4.34000000	     -2.05071739	      3.28675907	   -106.09797334	      0.22370656	      0.87435681	      0.27033534	     15.54022507	     -2.56964153	      7.42024055	    -64.39388664	      1.27011095	     -0.24883883	     23.09570542	     -9.70124184	    -11.70332748	    -29.25113628	      8.75431382	      6.87100291	     -1.64242899	      0.29474093	     14.25847522
      4.35000000	     -2.00986598	      3.26509249	   -106.13083211	      0.22573434	      0.87542667	      0.27444510	     17.05600899	     -2.89606726	      6.42857186	    -65.23153310	      2.26677236	     -1.21312237	     22.66013330	     -9.39699578	    -11.81370685	    -28.97906059	      8.89038176	      6.64222203	     -1.84053863	      0.23028320	     13.89455883
      4.36000000	     -2.04032949	      3.25443776	   -106.11288133	      0.22764416	      0.87656396	      0.27849889	     18.41941645	     -3.09015781	      5.47513230	    -65.67072436	      3.20832459	     -2.00417090	     22.21373379	     -9.15852965	    -11.85226866	    -28.66522978	      9.01528001	      6.42820319	     -2.03241226	      0.24104623	     13.49655252
      4.37000000	     -2.11635002	      3.25732621	   -106.04210588	      0.22943250	      0.87772255	      0.28247638	     19.64275782	     -3.17301459	      4.56503774	    -65.72819573	      4.05272149	     -2.52303108	     21.78462425	     -8.96987340	    -11.84559829	    -28.34488540	      9.11797060	      6.24831862	     -2.21179127	      0.29932958	     13.05836548
      4.38000000	     -2.23083348	      3.26235366	   -105.92701543	      0.23107123	      0.87890654	      0.28639425	     20.70944814	     -3.15064364	      3.71159821	    -65.40215943	      4.81287153	     -2.65684796	     21.35493410	     -8.82754873	    -11.81243876	    -28.01414571	      9.21054021	      6.16022716	     -2.38659306	      0.39185176	     12.60061511
      4.39000000	     -2.37787103	      3.30765151	   -105.78026021	      0.23249952	      0.88004931	      0.29022294	     21.66033571	     -2.99382217	      2.94638810	    -64.69916284	      5.49070146	     -2.71389784	     20.96744268	     -8.74203311	    -11.74228456	    -27.67787678	      9.29262372	      6.03643816	     -2.51007905	      0.51988707	     12.11426910
      4.40000000	     -2.55309740	      3.37384891	   -105.60068229	      0.23373212	      0.88116143	      0.29397073	     22.47428529	     -2.73095996	      2.26217839	    -63.62448940	      6.11565997	     -2.57976386	     20.60315725	     -8.70543704	    -11.65119970	    -27.33604264	      9.36548227	      5.93011885	     -2.60320782	      0.67043771	     11.62785225
      4.41000000	     -2.76296656	      3.46602053	   -105.38841761	      0.23476456	      0.88224778	      0.29765307	     23.13965803	     -2.34963413	      1.68670453	    -62.16169812	      6.66320455	     -2.18448901	     20.26506445	     -8.72087559	    -11.50834138	    -26.99107193	      9.43764465	      5.83079226	     -2.65683852	      0.85125042	     11.12769430
      4.42000000	     -2.97536980	      3.57463968	   -105.17081917	      0.23560240	      0.88327739	      0.30126881	     23.67053311	     -1.90424521	      1.23876786	    -60.34664802	      7.20194190	     -1.46300214	     19.94826235	     -8.76762205	    -11.40235186	    -26.64901055	      9.48883802	      5.76702582	     -2.67372864	      1.02782465	     10.67057504
